<svg width="61" height="61" viewBox="0 0 61 61" fill="none" xmlns="http://www.w3.org/2000/svg">
<rect width="60.8651" height="60.8651" rx="30.4326" fill="white"/>
<g clip-path="url(#clip0_7002_53)">
<path d="M35.5043 35.5048C38.3056 35.5048 40.5764 33.2339 40.5764 30.4327C40.5764 27.6315 38.3056 25.3606 35.5043 25.3606C32.7031 25.3606 30.4323 27.6315 30.4323 30.4327C30.4323 33.2339 32.7031 35.5048 35.5043 35.5048Z" fill="#19BCFE"/>
<path fill-rule="evenodd" clip-rule="evenodd" d="M25.3605 45.6488C26.7057 45.6488 27.9958 45.1144 28.947 44.1632C29.8982 43.212 30.4326 41.9219 30.4326 40.5767V35.5046H25.3605C24.0153 35.5046 22.7252 36.039 21.774 36.9902C20.8228 37.9414 20.2884 39.2315 20.2884 40.5767C20.2884 41.9219 20.8228 43.212 21.774 44.1632C22.7252 45.1144 24.0153 45.6488 25.3605 45.6488Z" fill="#09CF83"/>
<path fill-rule="evenodd" clip-rule="evenodd" d="M25.3605 35.5048H30.4326V25.3606H25.3605C24.0153 25.3606 22.7252 25.895 21.774 26.8462C20.8228 27.7974 20.2884 29.0875 20.2884 30.4327C20.2884 31.7779 20.8228 33.068 21.774 34.0192C22.7252 34.9704 24.0153 35.5048 25.3605 35.5048Z" fill="#A259FF"/>
<path fill-rule="evenodd" clip-rule="evenodd" d="M25.3612 25.3605H30.4333V15.2163H25.3612C24.016 15.2163 22.7259 15.7507 21.7747 16.7019C20.8235 17.6531 20.2891 18.9432 20.2891 20.2884C20.2891 21.6336 20.8235 22.9237 21.7747 23.8749C22.7259 24.8261 24.016 25.3605 25.3612 25.3605Z" fill="#F24E1E"/>
<path fill-rule="evenodd" clip-rule="evenodd" d="M35.5043 25.3605H30.4323V15.2163H35.5043C36.8495 15.2163 38.1397 15.7507 39.0909 16.7019C40.0421 17.6531 40.5764 18.9432 40.5764 20.2884C40.5764 21.6336 40.0421 22.9237 39.0909 23.8749C38.1397 24.8261 36.8495 25.3605 35.5043 25.3605Z" fill="#FF7262"/>
</g>
<defs>
<clipPath id="clip0_7002_53">
<rect width="30.4326" height="30.4326" fill="white" transform="translate(15.2158 15.2163)"/>
</clipPath>
</defs>
</svg>
