<svg width="56" height="56" viewBox="0 0 56 56" fill="none" xmlns="http://www.w3.org/2000/svg">
<path d="M24 2.3094C26.4752 0.880338 29.5248 0.880339 32 2.3094L48.2487 11.6906C50.7239 13.1197 52.2487 15.7607 52.2487 18.6188V37.3812C52.2487 40.2393 50.7239 42.8803 48.2487 44.3094L32 53.6906C29.5248 55.1197 26.4752 55.1197 24 53.6906L7.75129 44.3094C5.27608 42.8803 3.75129 40.2393 3.75129 37.3812V18.6188C3.75129 15.7607 5.27608 13.1197 7.75129 11.6906L24 2.3094Z" fill="#3777FE"/>
<path d="M33.5748 35.0891L20.4657 40.6127C19.1039 41.1854 17.9202 39.4927 18.9257 38.4109L28.8657 27.6182L34.0202 32.8618C34.7075 33.5491 34.4784 34.72 33.5748 35.0891Z" fill="white"/>
<path d="M37.1257 17.5255L28.8657 27.6183L23.7112 22.4001C23.0239 21.7001 23.253 20.5292 24.1566 20.1601L35.5348 15.3874C36.8584 14.8274 38.0421 16.4183 37.1257 17.5255Z" fill="white"/>
</svg>
